<svg width="318" height="65" viewBox="0 0 318 65" fill="none" xmlns="http://www.w3.org/2000/svg">
<path fill-rule="evenodd" clip-rule="evenodd" d="M31.424 3.04176C31.424 0.443194 28.2822 -0.858172 26.4447 0.979289L1.09442 26.3296C1.08281 26.3412 1.07131 26.3529 1.05993 26.3647C-0.0766371 27.5039 -0.0758033 29.3489 1.06243 30.4871L17.5129 46.9376C18.5362 47.9608 20.1305 48.0649 21.2699 47.2497C21.4206 47.1475 21.5638 47.0296 21.6974 46.8961L25.0584 43.5351L28.4609 46.9376C29.5999 48.0767 31.4467 48.0767 32.5858 46.9376C32.6826 46.8407 32.7712 46.7388 32.8516 46.6326L36.0476 43.4366L39.5486 46.9376C40.6876 48.0766 42.5344 48.0766 43.6735 46.9376C43.7703 46.8408 43.8589 46.7388 43.9393 46.6327L60.056 30.5159C60.3604 30.2116 60.5834 29.8567 60.7251 29.4782C61.2069 28.4054 61.0073 27.101 60.1263 26.22L46.5926 12.6863C46.0456 12.1393 45.3037 11.832 44.5301 11.832C41.9315 11.832 40.6302 14.9738 42.4676 16.8113L53.9892 28.3328L41.5915 40.7306L40.1725 39.3117L48.9683 30.5159C49.2727 30.2115 49.4957 29.8566 49.6374 29.4781C50.1191 28.4053 49.9195 27.101 49.0386 26.22L35.5048 12.6863C34.9578 12.1393 34.2159 11.832 33.4424 11.832C30.8438 11.832 29.5424 14.9738 31.3799 16.8113L42.9015 28.3328L30.5037 40.7306L29.1833 39.4102L37.9261 30.6674C38.0603 30.5726 38.1883 30.4651 38.3085 30.345C39.4476 29.2059 39.4476 27.3591 38.3085 26.22L23.8812 11.7927L30.5697 5.10422C31.1167 4.55722 31.424 3.81533 31.424 3.04176ZM19.7562 15.9177L7.24955 28.4243L19.5844 40.7592L20.9334 39.4102L12.0104 30.4871C10.8713 29.348 10.8713 27.5012 12.0104 26.3622C13.1494 25.2231 14.9962 25.2231 16.1353 26.3622L25.0584 35.2852L32.0911 28.2525L19.7562 15.9177Z" fill="#D2B56B"/>
<path d="M71.3711 45V14.0625H79.7559C82.0059 14.0625 83.6406 14.6133 84.6602 15.7148C85.6914 16.8047 86.207 18.6094 86.207 21.1289V22.4824C86.207 23.9355 85.9434 25.1133 85.416 26.0156C84.9004 26.918 84.1094 27.5098 83.043 27.791C84.4375 28.1426 85.3691 28.9688 85.8379 30.2695C86.3184 31.5586 86.5586 33.1348 86.5586 34.998C86.5586 37.002 86.3711 38.7539 85.9961 40.2539C85.6211 41.7539 84.9414 42.9199 83.957 43.752C82.9727 44.584 81.5723 45 79.7559 45H71.3711ZM77.418 25.7168H78.6836C79.2578 25.7168 79.627 25.4941 79.791 25.0488C79.9551 24.6035 80.0371 24.0703 80.0371 23.4492V20.3379C80.0371 19.3418 79.5977 18.8438 78.7188 18.8438H77.418V25.7168ZM78.0332 39.5508C79.6387 39.5508 80.4414 38.7891 80.4414 37.2656V33.3984C80.4414 32.5195 80.3066 31.8281 80.0371 31.3242C79.7793 30.8086 79.2871 30.5508 78.5605 30.5508H77.418V39.5156C77.6758 39.5391 77.8809 39.5508 78.0332 39.5508ZM89.5539 45L92.5422 14.0625H103.036L105.972 45H100.118L99.6789 40.0078H95.9523L95.5656 45H89.5539ZM96.3918 35.0684H99.2043L97.8508 19.3359H97.5695L96.3918 35.0684ZM109.67 45V14.0625H116.034L118.881 28.8809V14.0625H124.858V45H118.811L115.717 29.5312V45H109.67ZM129.4 45V14.0625H135.517V26.4551L138.4 14.0625H144.623L141.16 28.2305L145.343 45H138.927L135.552 30.0234V45H129.4ZM160.879 45L157.557 14.0625H163.604L165.309 33.5918L167.049 14.0625H172.814L174.467 33.5918L176.119 14.0625H182.236L178.861 45H171.443L169.896 30.1113L168.42 45H160.879ZM193.265 45.2812C190.792 45.2812 188.9 44.5371 187.587 43.0488C186.286 41.5488 185.636 39.3867 185.636 36.5625V21.8672C185.636 19.2188 186.28 17.209 187.57 15.8379C188.87 14.4668 190.769 13.7812 193.265 13.7812C195.761 13.7812 197.654 14.4668 198.943 15.8379C200.243 17.209 200.894 19.2188 200.894 21.8672V36.5625C200.894 39.3867 200.238 41.5488 198.925 43.0488C197.624 44.5371 195.738 45.2812 193.265 45.2812ZM193.318 39.5859C194.255 39.5859 194.724 38.6777 194.724 36.8613V21.7617C194.724 20.2383 194.267 19.4766 193.353 19.4766C192.321 19.4766 191.806 20.2559 191.806 21.8145V36.8965C191.806 37.8574 191.923 38.5488 192.157 38.9707C192.392 39.3809 192.779 39.5859 193.318 39.5859ZM205.19 45V14.0625H211.553L214.401 28.8809V14.0625H220.377V45H214.33L211.237 29.5312V45H205.19ZM232.302 45.2812C229.83 45.2812 227.937 44.5371 226.625 43.0488C225.324 41.5488 224.673 39.3867 224.673 36.5625V21.8672C224.673 19.2188 225.318 17.209 226.607 15.8379C227.908 14.4668 229.806 13.7812 232.302 13.7812C234.798 13.7812 236.691 14.4668 237.98 15.8379C239.281 17.209 239.931 19.2188 239.931 21.8672V36.5625C239.931 39.3867 239.275 41.5488 237.962 43.0488C236.662 44.5371 234.775 45.2812 232.302 45.2812ZM232.355 39.5859C233.293 39.5859 233.761 38.6777 233.761 36.8613V21.7617C233.761 20.2383 233.304 19.4766 232.39 19.4766C231.359 19.4766 230.843 20.2559 230.843 21.8145V36.8965C230.843 37.8574 230.961 38.5488 231.195 38.9707C231.429 39.3809 231.816 39.5859 232.355 39.5859ZM251.575 45.2812C248.751 45.2812 246.712 44.5781 245.458 43.1719C244.216 41.7656 243.595 39.5273 243.595 36.457V33.4336H249.712V37.3008C249.712 38.0156 249.817 38.5781 250.028 38.9883C250.251 39.3867 250.632 39.5859 251.171 39.5859C251.733 39.5859 252.12 39.4219 252.331 39.0938C252.554 38.7656 252.665 38.2266 252.665 37.4766C252.665 36.5273 252.571 35.7363 252.384 35.1035C252.196 34.459 251.868 33.8496 251.399 33.2754C250.942 32.6895 250.304 32.0098 249.483 31.2363L246.706 28.5996C244.632 26.6426 243.595 24.4043 243.595 21.8848C243.595 19.248 244.204 17.2383 245.423 15.8555C246.653 14.4727 248.429 13.7812 250.749 13.7812C253.585 13.7812 255.595 14.5371 256.778 16.0488C257.973 17.5605 258.571 19.8574 258.571 22.9395H252.278V20.8125C252.278 20.3906 252.155 20.0625 251.909 19.8281C251.675 19.5938 251.352 19.4766 250.942 19.4766C250.45 19.4766 250.087 19.6172 249.852 19.8984C249.63 20.168 249.518 20.5195 249.518 20.9531C249.518 21.3867 249.636 21.8555 249.87 22.3594C250.104 22.8633 250.567 23.4434 251.259 24.0996L254.827 27.5273C255.542 28.207 256.198 28.9277 256.796 29.6895C257.393 30.4395 257.874 31.3184 258.237 32.3262C258.6 33.3223 258.782 34.541 258.782 35.9824C258.782 38.8887 258.243 41.168 257.165 42.8203C256.098 44.4609 254.235 45.2812 251.575 45.2812ZM270.039 45.2812C267.566 45.2812 265.674 44.5371 264.361 43.0488C263.061 41.5488 262.41 39.3867 262.41 36.5625V21.8672C262.41 19.2188 263.055 17.209 264.344 15.8379C265.645 14.4668 267.543 13.7812 270.039 13.7812C272.535 13.7812 274.428 14.4668 275.717 15.8379C277.018 17.209 277.668 19.2188 277.668 21.8672V36.5625C277.668 39.3867 277.012 41.5488 275.699 43.0488C274.398 44.5371 272.512 45.2812 270.039 45.2812ZM270.092 39.5859C271.029 39.5859 271.498 38.6777 271.498 36.8613V21.7617C271.498 20.2383 271.041 19.4766 270.127 19.4766C269.096 19.4766 268.58 20.2559 268.58 21.8145V36.8965C268.58 37.8574 268.697 38.5488 268.932 38.9707C269.166 39.3809 269.553 39.5859 270.092 39.5859ZM281.964 45V14.0625H290.349C292.599 14.0625 294.234 14.6133 295.253 15.7148C296.284 16.8047 296.8 18.6094 296.8 21.1289V22.4824C296.8 23.9355 296.536 25.1133 296.009 26.0156C295.493 26.918 294.702 27.5098 293.636 27.791C295.03 28.1426 295.962 28.9688 296.431 30.2695C296.911 31.5586 297.152 33.1348 297.152 34.998C297.152 37.002 296.964 38.7539 296.589 40.2539C296.214 41.7539 295.534 42.9199 294.55 43.752C293.566 44.584 292.165 45 290.349 45H281.964ZM288.011 25.7168H289.277C289.851 25.7168 290.22 25.4941 290.384 25.0488C290.548 24.6035 290.63 24.0703 290.63 23.4492V20.3379C290.63 19.3418 290.191 18.8438 289.312 18.8438H288.011V25.7168ZM288.626 39.5508C290.232 39.5508 291.034 38.7891 291.034 37.2656V33.3984C291.034 32.5195 290.9 31.8281 290.63 31.3242C290.372 30.8086 289.88 30.5508 289.154 30.5508H288.011V39.5156C288.269 39.5391 288.474 39.5508 288.626 39.5508ZM308.373 45.2812C305.901 45.2812 304.008 44.5371 302.696 43.0488C301.395 41.5488 300.745 39.3867 300.745 36.5625V21.8672C300.745 19.2188 301.389 17.209 302.678 15.8379C303.979 14.4668 305.877 13.7812 308.373 13.7812C310.87 13.7812 312.762 14.4668 314.051 15.8379C315.352 17.209 316.002 19.2188 316.002 21.8672V36.5625C316.002 39.3867 315.346 41.5488 314.034 43.0488C312.733 44.5371 310.846 45.2812 308.373 45.2812ZM308.426 39.5859C309.364 39.5859 309.832 38.6777 309.832 36.8613V21.7617C309.832 20.2383 309.375 19.4766 308.461 19.4766C307.43 19.4766 306.914 20.2559 306.914 21.8145V36.8965C306.914 37.8574 307.032 38.5488 307.266 38.9707C307.5 39.3809 307.887 39.5859 308.426 39.5859Z" fill="#18254F"/>
<path d="M238.444 64.041C237.794 63.2437 237.296 62.3467 236.949 61.35C236.602 60.3533 236.429 59.322 236.429 58.256C236.429 57.19 236.602 56.1543 236.949 55.149C237.296 54.1437 237.794 53.2423 238.444 52.445H239.354C239.059 52.9737 238.791 53.5587 238.548 54.2C238.305 54.8327 238.11 55.4957 237.963 56.189C237.824 56.8737 237.755 57.554 237.755 58.23C237.755 58.906 237.824 59.5907 237.963 60.284C238.11 60.9773 238.305 61.6447 238.548 62.286C238.791 62.9273 239.059 63.5123 239.354 64.041H238.444ZM241.024 62V53.082H244.209C244.815 53.082 245.322 53.1947 245.73 53.42C246.146 53.6453 246.453 53.9573 246.653 54.356C246.861 54.7547 246.965 55.214 246.965 55.734C246.965 56.28 246.848 56.761 246.614 57.177C246.388 57.5843 246.072 57.9007 245.665 58.126C245.257 58.3513 244.772 58.464 244.209 58.464H242.519V62H241.024ZM242.519 57.138H244.092C244.516 57.138 244.846 57.0123 245.08 56.761C245.314 56.5097 245.431 56.1673 245.431 55.734C245.431 55.3267 245.314 55.006 245.08 54.772C244.846 54.5293 244.516 54.408 244.092 54.408H242.519V57.138ZM248.783 62V53.082H254.412V54.408H250.278V56.774H253.84V58.1H250.278V60.674H254.49V62H248.783ZM256.542 62V53.082H260.234C261.127 53.082 261.799 53.3203 262.249 53.797C262.709 54.265 262.938 54.8673 262.938 55.604C262.938 56.15 262.8 56.6223 262.522 57.021C262.254 57.4197 261.885 57.71 261.417 57.892L263.159 62H261.534L259.987 58.204H258.037V62H256.542ZM258.037 56.878H260.065C260.49 56.878 260.811 56.7653 261.027 56.54C261.244 56.3147 261.352 56.0027 261.352 55.604C261.352 55.2313 261.248 54.941 261.04 54.733C260.832 54.5163 260.52 54.408 260.104 54.408H258.037V56.878ZM267.564 62.156C267.018 62.156 266.511 62.0607 266.043 61.87C265.583 61.6707 265.211 61.3673 264.925 60.96C264.647 60.5527 264.509 60.037 264.509 59.413C264.509 59.3697 264.509 59.322 264.509 59.27C264.517 59.2093 264.522 59.166 264.522 59.14H266.056C266.056 59.1487 266.051 59.1833 266.043 59.244C266.043 59.296 266.043 59.3393 266.043 59.374C266.043 59.842 266.181 60.206 266.459 60.466C266.745 60.726 267.122 60.856 267.59 60.856C268.127 60.856 268.517 60.739 268.76 60.505C269.002 60.271 269.124 59.9893 269.124 59.66C269.124 59.348 269.041 59.101 268.877 58.919C268.721 58.7283 268.508 58.5723 268.24 58.451C267.98 58.321 267.694 58.2083 267.382 58.113C267.07 58.0177 266.753 57.9093 266.433 57.788C266.112 57.6667 265.822 57.5107 265.562 57.32C265.302 57.1207 265.089 56.8693 264.925 56.566C264.769 56.254 264.691 55.8597 264.691 55.383C264.691 54.8283 264.825 54.369 265.094 54.005C265.362 53.641 265.718 53.3723 266.16 53.199C266.61 53.017 267.096 52.926 267.616 52.926C268.144 52.926 268.621 53.017 269.046 53.199C269.479 53.3723 269.826 53.6497 270.086 54.031C270.346 54.4123 270.476 54.9063 270.476 55.513V55.669H268.955V55.526C268.955 55.1187 268.833 54.8023 268.591 54.577C268.348 54.343 268.023 54.226 267.616 54.226C267.191 54.226 266.853 54.3213 266.602 54.512C266.35 54.694 266.225 54.9497 266.225 55.279C266.225 55.5563 266.307 55.7817 266.472 55.955C266.636 56.1197 266.849 56.2583 267.109 56.371C267.369 56.475 267.655 56.5747 267.967 56.67C268.287 56.7653 268.604 56.8737 268.916 56.995C269.236 57.1163 269.527 57.2767 269.787 57.476C270.047 57.6667 270.255 57.9137 270.411 58.217C270.575 58.5117 270.658 58.893 270.658 59.361C270.658 60.037 270.523 60.5787 270.255 60.986C269.995 61.3933 269.631 61.6923 269.163 61.883C268.695 62.065 268.162 62.156 267.564 62.156ZM272.645 62V53.082H278.274V54.408H274.14V56.774H277.702V58.1H274.14V60.674H278.352V62H272.645ZM280.405 62V53.082H284.097C284.989 53.082 285.661 53.3203 286.112 53.797C286.571 54.265 286.801 54.8673 286.801 55.604C286.801 56.15 286.662 56.6223 286.385 57.021C286.116 57.4197 285.748 57.71 285.28 57.892L287.022 62H285.397L283.85 58.204H281.9V62H280.405ZM281.9 56.878H283.928C284.352 56.878 284.673 56.7653 284.89 56.54C285.106 56.3147 285.215 56.0027 285.215 55.604C285.215 55.2313 285.111 54.941 284.903 54.733C284.695 54.5163 284.383 54.408 283.967 54.408H281.9V56.878ZM292.076 62.156C290.941 62.156 290.048 61.779 289.398 61.025C288.757 60.2623 288.436 59.101 288.436 57.541C288.436 55.9723 288.757 54.811 289.398 54.057C290.048 53.303 290.941 52.926 292.076 52.926C293.211 52.926 294.1 53.303 294.741 54.057C295.391 54.811 295.716 55.9723 295.716 57.541C295.716 59.101 295.391 60.2623 294.741 61.025C294.1 61.779 293.211 62.156 292.076 62.156ZM292.076 60.856C292.761 60.856 293.281 60.6003 293.636 60.089C294 59.569 294.182 58.828 294.182 57.866V57.216C294.182 56.254 294 55.5173 293.636 55.006C293.281 54.486 292.761 54.226 292.076 54.226C291.4 54.226 290.88 54.486 290.516 55.006C290.152 55.5173 289.97 56.254 289.97 57.216V57.866C289.97 58.828 290.152 59.569 290.516 60.089C290.88 60.6003 291.4 60.856 292.076 60.856ZM297.688 62V53.082H300.548C301.64 53.082 302.498 53.446 303.122 54.174C303.746 54.8933 304.058 55.9723 304.058 57.411C304.058 58.9363 303.746 60.0847 303.122 60.856C302.498 61.6187 301.64 62 300.548 62H297.688ZM299.183 60.674H300.405C301.055 60.674 301.571 60.4313 301.952 59.946C302.333 59.452 302.524 58.7153 302.524 57.736V57.086C302.524 56.1933 302.333 55.526 301.952 55.084C301.571 54.6333 301.055 54.408 300.405 54.408H299.183V60.674ZM305.212 62L308.072 53.082H309.84L312.7 62H311.166L310.594 60.167H307.214L306.655 62H305.212ZM307.63 58.828H310.178L309.177 55.513C309.143 55.383 309.104 55.227 309.06 55.045C309.017 54.863 308.982 54.707 308.956 54.577C308.939 54.447 308.93 54.382 308.93 54.382H308.878C308.878 54.382 308.865 54.4513 308.839 54.59C308.822 54.7287 308.792 54.889 308.748 55.071C308.714 55.2443 308.679 55.3917 308.644 55.513L307.63 58.828ZM313.56 64.041C313.864 63.5123 314.137 62.9273 314.379 62.286C314.622 61.6447 314.813 60.9773 314.951 60.284C315.09 59.5907 315.159 58.906 315.159 58.23C315.159 57.554 315.09 56.8737 314.951 56.189C314.813 55.4957 314.622 54.8327 314.379 54.2C314.137 53.5587 313.864 52.9737 313.56 52.445H314.47C315.12 53.2423 315.619 54.1437 315.965 55.149C316.312 56.1543 316.485 57.19 316.485 58.256C316.485 59.322 316.312 60.3533 315.965 61.35C315.619 62.3467 315.12 63.2437 314.47 64.041H313.56Z" fill="black"/>
<path d="M71.819 9V0.0819994H75.004C75.6107 0.0819994 76.1177 0.194666 76.525 0.42C76.941 0.645333 77.2487 0.957333 77.448 1.356C77.656 1.75467 77.76 2.214 77.76 2.734C77.76 3.28 77.643 3.761 77.409 4.177C77.1837 4.58433 76.8673 4.90067 76.46 5.126C76.0527 5.35133 75.5673 5.464 75.004 5.464H73.314V9H71.819ZM73.314 4.138H74.887C75.3117 4.138 75.641 4.01233 75.875 3.761C76.109 3.50967 76.226 3.16733 76.226 2.734C76.226 2.32667 76.109 2.006 75.875 1.772C75.641 1.52933 75.3117 1.408 74.887 1.408H73.314V4.138ZM81.2814 9V1.408H78.9934V0.0819994H85.0514V1.408H82.7634V9H81.2814ZM90.2726 9V0.0819994H93.9516C94.4109 0.0819994 94.8183 0.177333 95.1736 0.368C95.5376 0.55 95.8193 0.805667 96.0186 1.135C96.2266 1.45567 96.3306 1.837 96.3306 2.279C96.3306 2.79033 96.1963 3.22367 95.9276 3.579C95.6676 3.93433 95.3469 4.18133 94.9656 4.32V4.372C95.4076 4.51067 95.7803 4.77933 96.0836 5.178C96.3869 5.568 96.5386 6.049 96.5386 6.621C96.5386 7.12367 96.4173 7.55267 96.1746 7.908C95.9406 8.26333 95.6286 8.53633 95.2386 8.727C94.8486 8.909 94.4196 9 93.9516 9H90.2726ZM91.7546 7.674H93.7176C94.0903 7.674 94.3979 7.57 94.6406 7.362C94.8919 7.14533 95.0176 6.83333 95.0176 6.426C95.0176 6.062 94.9006 5.75 94.6666 5.49C94.4326 5.23 94.0903 5.1 93.6396 5.1H91.7546V7.674ZM91.7546 3.774H93.5356C93.9429 3.774 94.2549 3.65267 94.4716 3.41C94.6969 3.16733 94.8096 2.88567 94.8096 2.565C94.8096 2.18367 94.6969 1.89767 94.4716 1.707C94.2549 1.50767 93.9689 1.408 93.6136 1.408H91.7546V3.774ZM98.4385 9V0.0819994H101.624C102.23 0.0819994 102.737 0.194666 103.145 0.42C103.561 0.645333 103.868 0.957333 104.068 1.356C104.276 1.75467 104.38 2.214 104.38 2.734C104.38 3.28 104.263 3.761 104.029 4.177C103.803 4.58433 103.487 4.90067 103.08 5.126C102.672 5.35133 102.187 5.464 101.624 5.464H99.9335V9H98.4385ZM99.9335 4.138H101.507C101.931 4.138 102.261 4.01233 102.495 3.761C102.729 3.50967 102.846 3.16733 102.846 2.734C102.846 2.32667 102.729 2.006 102.495 1.772C102.261 1.52933 101.931 1.408 101.507 1.408H99.9335V4.138ZM106.198 9V0.0819994H109.89C110.783 0.0819994 111.454 0.320333 111.905 0.796999C112.364 1.265 112.594 1.86733 112.594 2.604C112.594 3.15 112.455 3.62233 112.178 4.021C111.909 4.41967 111.541 4.71 111.073 4.892L112.815 9H111.19L109.643 5.204H107.693V9H106.198ZM107.693 3.878H109.721C110.146 3.878 110.466 3.76533 110.683 3.54C110.9 3.31467 111.008 3.00267 111.008 2.604C111.008 2.23133 110.904 1.941 110.696 1.733C110.488 1.51633 110.176 1.408 109.76 1.408H107.693V3.878Z" fill="black"/>
</svg>
